# xmcd
#
# Track frame offsets: 
#        150
#        19283
#        34070
#        53531
#        71636
#        86982
#        102383
#        123278
#        137792
#        155559
#        172084
#        188477
#        203897
#        218069
#        233380
#        246889
#        261394
#
# Disc length: 3716 seconds
#
# Revision: 5
# Processed by: cddbd v1.5.2PL0 Copyright (c) Steve Scherf et al.
# Submitted via: ExactAudioCopy v0.99pb4
#
DISCID=f10e8211
DTITLE=Katie Melua - The Katie Melua Collection
DYEAR=2008
DGENRE=Folk
TTITLE0=The Closest Thing To Crazy
TTITLE1=Nine Million Bicycles
TTITLE2=What A Wonderful World (Duet with Eva Cassidy)
TTITLE3=If You Were A Sailboat
TTITLE4=Piece By Piece
TTITLE5=Call Off The Search
TTITLE6=On The Road Again
TTITLE7=Mary Pickford
TTITLE8=Spider's Web
TTITLE9=Thank You, Stars
TTITLE10=I Cried For You
TTITLE11=Crawling Up A Hill
TTITLE12=Tiger In The Night
TTITLE13=When You Taught Me How To Dance
TTITLE14=Two Bare Feet
TTITLE15=Toy Collection
TTITLE16=Somewhere In The Same Hotel
EXTD=
EXTT0=
EXTT1=
EXTT2=
EXTT3=
EXTT4=
EXTT5=
EXTT6=
EXTT7=
EXTT8=
EXTT9=
EXTT10=
EXTT11=
EXTT12=
EXTT13=
EXTT14=
EXTT15=
EXTT16=
PLAYORDER=
